<?xml version="1.0" standalone="no"?>
<!DOCTYPE svg PUBLIC "-//W3C//DTD SVG 20010904//EN"
 "http://www.w3.org/TR/2001/REC-SVG-20010904/DTD/svg10.dtd">
<svg version="1.0" xmlns="http://www.w3.org/2000/svg"
 width="250.000000pt" height="100.000000pt" viewBox="0 0 250.000000 100.000000"
 preserveAspectRatio="xMidYMid meet">
<metadata>
Created by potrace 1.16, written by Peter Selinger 2001-2019
</metadata>
<g transform="translate(0.000000,100.000000) scale(0.084746,-0.039526)"
fill="#000000" stroke="none">
<path d="M745 2276 c-37 -17 -80 -62 -94 -99 -6 -16 -11 -105 -11 -210 l0
-182 280 -217 279 -218 443 0 c409 0 446 2 483 19 46 21 79 54 94 94 17 45 15
679 -3 720 -16 39 -61 82 -99 96 -45 17 -1333 14 -1372 -3z"/>
<path d="M640 1671 l0 -50 173 -135 172 -136 64 0 c36 0 61 4 55 8 -5 5 -111
88 -236 185 l-228 177 0 -49z"/>
<path d="M640 1521 c0 -102 95 -177 212 -169 l48 3 -122 95 c-67 52 -125 97
-130 98 -4 2 -8 -10 -8 -27z"/>
<path d="M571 1251 c-19 -14 -25 -29 -25 -56 0 -27 6 -42 25 -56 22 -17 46
-19 323 -19 180 0 296 4 290 9 -5 5 -47 39 -93 75 l-84 66 -206 0 c-186 0
-208 -2 -230 -19z"/>
<path d="M1100 1266 c0 -3 41 -37 90 -76 l91 -71 61 3 61 3 -93 73 c-92 71
-95 72 -152 72 -32 0 -58 -2 -58 -4z"/>
<path d="M1320 1256 c8 -7 50 -41 94 -75 l79 -61 389 0 c230 0 397 4 407 10
10 5 24 22 30 39 10 24 10 34 -3 59 -8 16 -23 32 -31 36 -9 3 -233 6 -498 6
-407 0 -479 -2 -467 -14z"/>
<path d="M617 853 c-4 -3 -7 -55 -7 -115 l0 -108 105 0 c130 0 141 18 13 22
l-93 3 0 35 0 35 73 3 c55 2 72 6 72 17 0 12 -16 15 -76 15 l-75 0 3 33 3 32
93 3 c73 2 92 6 92 17 0 12 -19 15 -98 15 -54 0 -102 -3 -105 -7z"/>
<path d="M2062 848 c-15 -15 -17 -218 -2 -218 6 0 10 18 10 40 l0 41 88 -3 87
-3 3 -37 c2 -25 8 -38 18 -38 11 0 14 19 14 98 0 127 -4 132 -121 132 -53 0
-90 -5 -97 -12z m186 -65 l3 -43 -90 0 -91 0 0 45 0 46 88 -3 87 -3 3 -42z"/>
<path d="M2320 745 c0 -70 4 -115 10 -115 6 0 10 38 10 95 0 52 4 95 8 95 5 0
24 -21 42 -47 70 -98 112 -143 137 -143 l24 0 -3 112 c-2 78 -7 113 -15 116
-10 3 -13 -20 -13 -92 0 -53 -4 -96 -8 -96 -4 0 -43 43 -87 95 -43 52 -85 95
-92 95 -10 0 -13 -27 -13 -115z"/>
</g>
</svg>
